<?xml version="1.0" standalone="no"?>
<!DOCTYPE svg PUBLIC "-//W3C//DTD SVG 20010904//EN"
 "http://www.w3.org/TR/2001/REC-SVG-20010904/DTD/svg10.dtd">
<svg version="1.0" xmlns="http://www.w3.org/2000/svg"
 width="800.000000pt" height="800.000000pt" viewBox="0 0 800.000000 800.000000"
 preserveAspectRatio="xMidYMid meet">

<g transform="translate(0.000000,800.000000) scale(0.100000,-0.100000)"
fill="#000000" stroke="none">
<path d="M3810 6660 c-316 -35 -621 -145 -850 -308 -120 -85 -287 -251 -367
-365 -119 -170 -209 -372 -255 -578 -20 -91 -23 -131 -23 -314 0 -168 4 -227
19 -295 42 -193 133 -452 249 -706 113 -248 114 -400 5 -653 -10 -24 -22 -40
-27 -35 -4 5 -30 38 -58 74 -63 80 -167 181 -210 203 -18 10 -44 17 -58 17
-38 0 -1033 -532 -1069 -572 -29 -31 -29 -32 -23 -132 4 -78 13 -125 40 -206
95 -286 314 -689 530 -975 96 -126 243 -269 299 -290 64 -24 99 -15 199 49 46
30 185 116 309 191 625 383 598 365 611 402 15 46 4 126 -33 241 -16 52 -27
96 -24 100 14 14 93 -23 138 -65 39 -37 63 -76 122 -198 83 -169 112 -210 171
-236 37 -17 75 -19 478 -19 283 0 453 4 481 11 79 20 110 57 192 226 48 100
89 170 117 200 43 47 105 82 144 83 l22 0 -28 -69 c-59 -143 -71 -267 -29
-306 7 -7 94 -62 193 -122 99 -61 281 -172 405 -248 124 -75 263 -161 309
-191 46 -29 99 -56 118 -60 62 -12 118 20 224 125 301 303 646 919 723 1293
20 96 20 118 0 168 -15 37 -27 46 -188 134 -409 224 -877 466 -901 466 -14 0
-40 -7 -58 -17 -43 -22 -147 -123 -210 -203 -28 -36 -54 -69 -58 -74 -5 -5
-17 11 -27 35 -105 244 -106 404 -6 623 144 314 228 561 265 775 29 174 23
434 -14 591 -154 650 -669 1109 -1363 1215 -124 19 -372 27 -484 15z m460
-116 c364 -50 676 -206 921 -462 193 -200 317 -435 376 -712 28 -133 26 -430
-5 -570 -33 -148 -112 -378 -194 -565 -104 -235 -127 -309 -134 -417 -8 -122
10 -217 76 -391 l51 -136 -49 -73 c-77 -115 -198 -327 -269 -474 l-65 -134
-38 0 c-21 0 -68 -9 -104 -20 -107 -33 -154 -88 -254 -293 -66 -135 -89 -171
-115 -187 -31 -19 -52 -20 -467 -20 -412 0 -437 1 -467 19 -24 15 -50 57 -117
190 -48 94 -100 187 -117 206 -41 47 -141 94 -216 103 l-61 7 -89 175 c-84
163 -196 358 -265 458 l-29 42 51 137 c60 159 80 241 80 340 0 102 -24 201
-77 323 -236 541 -309 826 -282 1110 20 208 58 341 154 535 177 357 472 608
870 741 260 86 538 109 835 68z m-1974 -2986 c106 -98 277 -332 414 -568 160
-274 317 -630 328 -740 l4 -47 -53 -33 c-590 -364 -803 -490 -810 -478 -5 7
-9 24 -9 38 0 41 -38 167 -86 285 -171 417 -487 908 -697 1081 l-38 31 203
108 c597 319 684 365 691 365 4 0 28 -19 53 -42z m3709 -86 c132 -71 331 -177
443 -236 l202 -108 -46 -41 c-178 -157 -397 -471 -574 -824 -113 -226 -200
-457 -200 -533 0 -14 -4 -31 -9 -38 -7 -12 -220 114 -810 478 l-53 33 6 44
c18 131 176 492 331 753 89 151 223 346 301 440 63 77 147 160 161 160 5 0
116 -58 248 -128z m-4630 -506 c50 -50 125 -136 166 -192 216 -287 455 -747
519 -999 24 -92 26 -165 7 -165 -60 0 -245 208 -410 460 -219 334 -392 717
-422 932 -4 26 -4 51 -1 56 13 22 55 -5 141 -92z m5388 44 c-12 -268 -385
-967 -687 -1289 -52 -54 -126 -111 -145 -111 -20 0 -11 97 18 196 121 406 502
1035 745 1226 27 21 54 37 60 35 7 -3 10 -25 9 -57z"/>
<path d="M3006 5474 c-177 -43 -337 -197 -400 -384 -72 -217 -50 -462 64 -697
64 -130 142 -218 238 -265 61 -30 74 -33 157 -32 292 3 654 260 735 522 69
219 -17 435 -264 669 -187 179 -341 233 -530 187z m220 -99 c74 -22 162 -83
262 -182 283 -280 306 -532 71 -765 -123 -121 -280 -203 -440 -228 -65 -11
-84 -10 -131 4 -142 41 -250 203 -304 459 -20 94 -19 265 1 342 72 273 313
438 541 370z"/>
<path d="M4803 5479 c-163 -28 -341 -156 -485 -349 -100 -134 -140 -239 -140
-369 0 -244 201 -482 512 -607 178 -72 289 -80 400 -28 178 82 306 306 341
597 34 279 -76 550 -275 679 -101 65 -243 96 -353 77z m149 -100 c255 -53 413
-316 378 -626 -28 -249 -137 -466 -267 -529 -49 -25 -69 -29 -133 -28 -225 4
-515 194 -611 399 -95 202 -23 403 226 632 152 141 263 182 407 152z"/>
<path d="M3891 3494 c-232 -50 -425 -232 -497 -469 -29 -95 -25 -267 9 -370
37 -113 90 -196 178 -280 129 -123 272 -178 459 -178 182 1 333 66 460 199
152 161 216 366 176 574 -67 361 -429 602 -785 524z m235 -93 c254 -48 439
-255 460 -513 22 -272 -176 -526 -456 -584 -209 -43 -442 57 -567 244 -117
175 -118 423 -3 600 125 193 351 294 566 253z"/>
<path d="M4014 3332 c-32 -21 -34 -53 -34 -491 0 -386 2 -441 16 -455 19 -20
34 -20 62 0 l22 15 0 450 c0 436 -1 450 -20 469 -22 22 -29 24 -46 12z"/>
<path d="M3797 3272 c-15 -17 -17 -61 -17 -423 0 -222 4 -410 9 -418 13 -20
62 -17 78 5 10 14 13 101 13 420 0 353 -2 405 -16 418 -21 21 -47 20 -67 -2z"/>
<path d="M4197 3272 c-15 -17 -17 -60 -17 -419 0 -221 3 -408 6 -417 9 -24 71
-21 84 3 6 13 10 163 10 420 0 350 -2 402 -16 415 -21 21 -47 20 -67 -2z"/>
<path d="M3597 3102 c-15 -16 -17 -49 -17 -253 0 -170 3 -238 12 -247 19 -19
66 -15 78 7 6 12 10 110 10 250 0 195 -2 232 -16 245 -21 21 -47 20 -67 -2z"/>
<path d="M4396 3098 c-13 -19 -16 -61 -16 -255 0 -225 1 -232 21 -247 12 -8
29 -12 38 -9 38 14 41 30 41 269 0 198 -2 235 -16 248 -22 22 -50 20 -68 -6z"/>
</g>
</svg>
